<?xml version="1.0" standalone="no"?><!DOCTYPE svg PUBLIC "-//W3C//DTD SVG 1.1//EN" "http://www.w3.org/Graphics/SVG/1.1/DTD/svg11.dtd"><svg t="1614332797900" class="icon" viewBox="0 0 1040 1024" version="1.1" xmlns="http://www.w3.org/2000/svg" p-id="2824" width="65" height="64" xmlns:xlink="http://www.w3.org/1999/xlink"><defs><style type="text/css"></style></defs><path d="M997.956857 918.508387 891.150296 918.508387l-0.314155-574.139246 107.1156-0.277316c9.500375 0 18.24248-5.304819 22.274306-13.513782 3.197832-6.41613 3.693112-13.56597 1.438769-20.222577-2.100848-6.213515-6.351662-11.150968-11.964496-13.901615L522.834766 53.31016c-6.897084-3.296069-15.417131-3.357468-21.98471-0.042979L16.652262 294.986431c-10.116405 4.217045-16.652262 13.58439-16.652262 23.863501 0 13.5936 11.859096 25.518187 25.379017 25.518187l107.491153 0 0 463.256856 0.748037 0 0 110.88239L25.379017 918.507364c-13.757329 0-25.379017 11.449773-25.379017 25.003464 0 13.935384 11.385305 25.27157 25.379017 25.27157l972.57784 0c14.139022 0 25.644053-11.336186 25.644053-25.27157C1023.601934 929.95816 1011.858472 918.508387 997.956857 918.508387zM132.248 293.557896 511.602957 104.145965l379.703905 189.410907L132.248 293.556872zM369.618199 918.508387 183.278233 918.508387 183.278233 344.369142l185.336102 0 0 463.256856 1.003863 0L369.618199 918.508387zM603.793636 918.508387 419.283342 918.508387 419.283342 344.369142l184.79682 0L603.793636 918.508387zM841.49334 918.508387 654.353149 918.508387 654.353149 807.625998l0.375553 0L654.728702 344.369142l185.336102 0 0 463.256856 1.429559 0L841.494363 918.508387z" p-id="2825"></path></svg>