<?xml version="1.0" standalone="no"?><!DOCTYPE svg PUBLIC "-//W3C//DTD SVG 1.1//EN" "http://www.w3.org/Graphics/SVG/1.1/DTD/svg11.dtd"><svg t="1614333190051" class="icon" viewBox="0 0 1024 1024" version="1.1" xmlns="http://www.w3.org/2000/svg" p-id="9838" xmlns:xlink="http://www.w3.org/1999/xlink" width="200" height="200"><defs><style type="text/css"></style></defs><path d="M786.545378 472.51573l-46.095851 84.832084c-12.332886 22.960944-19.860327 38.239929-22.61302 45.818535h-0.766456c-8.117888-18.415418-31.009248-61.968353-68.708872-130.650619h-43.412742l80.728626 138.297786H619.513154v30.538527h77.523631v42.123377H619.513154v30.940686h77.523631v61.287855h38.500872v-61.287855h74.737169v-30.940686h-74.737169v-42.123377h74.737169v-30.538527h-64.145949l81.42652-138.297786h-41.010019z" p-id="9839"></path><path d="M941.767626 522.209526h0.696871V227.888244c0-29.754674-26.897603-53.9354-59.963697-53.9354H126.862851c-33.047674 0-59.963697 24.206308-59.963697 53.9354v531.544125c0 29.719882 26.916023 53.933353 59.963697 53.933353h460.281081c38.606273 25.034163 83.691097 38.46608 130.831744 38.46608 64.318888 0 124.839263-24.980951 170.34569-70.380954 45.503357-45.400003 70.553892-105.781208 70.553893-169.977299 0-31.077809-5.887081-61.234643-17.107633-89.264023zM97.59527 227.888244c0-12.865006 13.101389-23.343661 29.267581-23.343661h755.637949c16.167215 0 29.302373 10.477632 29.302373 23.343661v91.713818H97.59527v-91.713818z m29.267581 554.887786c-16.166191 0-29.267581-10.488889-29.267581-23.343661V350.829274h814.207903V468.656843a243.999177 243.999177 0 0 0-23.517623-27.15036c-45.470611-45.38977-105.989963-70.40756-170.309874-70.40756-64.351634 0-124.83824 25.016767-170.376388 70.40756-45.452191 45.398979-70.538543 105.771999-70.538543 169.968089 0 64.196091 25.086351 124.577297 70.538543 169.9773 0.488117 0.435928 0.974188 0.889253 1.392719 1.325181H126.862851z m591.112825 38.465057c-115.91808 0-210.253608-94.089935-210.253608-209.767538 0-115.665323 94.335529-209.783911 210.253608-209.783911 115.919103 0 210.238258 94.118588 210.238259 209.783911 0 115.677603-94.319156 209.767538-210.238259 209.767538z" p-id="9840"></path></svg>